<svg id="Capa_1" enable-background="new 0 0 512 512" height="512" viewBox="0 0 512 512" width="512" xmlns="http://www.w3.org/2000/svg"><g><g><g><g><g><g><g><g><g><g><g><g><g><g><circle cx="256" cy="256" fill="#0051be" r="256"/></g></g></g></g></g></g></g></g></g></g></g></g></g><path d="m511.597 241.728-59.338-59.338-2.835 2.835-61.324-61.325-94.729-41.819-100.518 7.832-72.963 51.688-35.487 73.475-3.376 81.16 42.873 91.864 123.75 123.75c2.774.089 5.555.15 8.35.15 141.385 0 256-114.615 256-256 0-4.79-.143-9.547-.403-14.272z" fill="#00347b"/><path d="m256.016 69.095c-.005 0-.01 0-.016 0-103.06 0-186.905 83.845-186.905 186.905s83.845 186.905 186.905 186.905h.016l5-189.708zm-57.981 30.386c-6.474 7.58-12.501 16.502-17.973 26.699-2.134 3.976-4.152 8.105-6.064 12.361h-36.457c16.937-17.08 37.529-30.528 60.494-39.06zm-77.447 59.061h45.574c-8.888 26.224-14.04 56.14-14.946 87.458h-61.813c1.931-32.516 13.21-62.553 31.185-87.458zm-.566 194.141c-17.65-24.751-28.708-54.506-30.619-86.683h61.813c.897 31.01 5.96 60.644 14.688 86.683zm16.761 20h36.863c2.014 4.533 4.151 8.919 6.415 13.137 5.472 10.197 11.5 19.12 17.973 26.699-23.309-8.661-44.17-22.389-61.251-39.836zm109.217 49.024c-17.855-4.294-34.725-20.018-48.316-45.345-.649-1.21-1.283-2.44-1.91-3.68h50.226zm0-69.024h-58.906c-9.423-25.439-14.907-55.219-15.868-86.683h74.774zm0-106.683h-74.774c.97-31.783 6.554-61.85 16.153-87.458h58.621zm0-107.458h-49.837c.5-.977 1.007-1.946 1.521-2.904 13.591-25.327 30.461-41.051 48.316-45.345z" fill="#fff"/><path d="m256.016 69.095v373.81c103.052-.009 186.889-83.851 186.889-186.905s-83.837-186.896-186.889-186.905zm118.443 69.447h-36.457c-1.912-4.256-3.93-8.386-6.064-12.361-5.472-10.197-11.5-19.12-17.973-26.699 22.965 8.531 43.557 21.979 60.494 39.06zm-108.459-48.249c17.855 4.294 34.725 20.018 48.316 45.345.514.958 1.021 1.927 1.521 2.904h-49.837zm0 68.249h58.621c9.599 25.608 15.183 55.675 16.153 87.458h-74.774zm0 107.458h74.774c-.96 31.464-6.445 61.244-15.868 86.683h-58.906zm0 155.707v-49.025h50.227c-.627 1.24-1.261 2.47-1.91 3.68-13.592 25.327-30.462 41.052-48.317 45.345zm47.965-9.188c6.474-7.58 12.501-16.502 17.973-26.699 2.263-4.218 4.401-8.604 6.415-13.137h36.863c-17.08 17.447-37.941 31.175-61.251 39.836zm78.013-59.836h-45.883c8.728-26.039 13.791-55.672 14.688-86.683h61.813c-1.91 32.177-12.968 61.931-30.618 86.683zm30.619-106.683h-61.813c-.906-31.318-6.057-61.234-14.946-87.458h45.574c17.975 24.905 29.254 54.942 31.185 87.458z" fill="#e2e1f4"/><g><g><path d="m483.183 256-103.095 103.095c-56.938 0-103.095-46.157-103.095-103.095s46.157-103.095 103.095-103.095z" fill="#ff6c52"/><path d="m483.183 256c0 56.938-46.157 103.095-103.095 103.095v-206.19c56.938 0 103.095 46.157 103.095 103.095z" fill="#ff432e"/></g><g><path d="m310.839 250.424c0-38.245 31.004-69.248 69.248-69.248l33.399 62.768-33.399 59.776-69.248-27.56z" fill="#5ecdf3"/><path d="m331.556 233.762v97.062h13.866v-20.072h13.866v20.072h13.867v-20.072h6.933l18.168-36.409-18.168-40.581z" fill="#5ecdf3"/><path d="m380.088 181.176c38.245 0 69.248 31.004 69.248 69.248v25.736l-69.248 27.56z" fill="#0fa8dc"/><path d="m400.887 330.824v-20.072h13.866v20.072h13.866v-97.062h-48.531v76.99h6.933v20.072z" fill="#0fa8dc"/><g><path d="m373.392 240.952c0 12.608-10.221 22.828-22.828 22.828s-22.828-10.221-22.828-22.828v-22.828z" fill="#00347b"/><path d="m386.783 240.952c0 12.608 10.221 22.828 22.828 22.828 12.608 0 22.828-10.221 22.828-22.828v-22.828z" fill="#002659"/></g><path d="m380.088 290.516h-13.368l13.368-26.736 4.331 18.514z" fill="#00347b"/><path d="m393.455 290.516h-13.367v-26.736z" fill="#002659"/></g></g></g></svg>