<svg id="Capa_1" enable-background="new 0 0 512 512" height="512" viewBox="0 0 512 512" width="512" xmlns="http://www.w3.org/2000/svg" xmlns:xlink="http://www.w3.org/1999/xlink"><linearGradient id="lg1"><stop offset="0" stop-color="#0056e0"/><stop offset="1" stop-color="#fc54ff"/></linearGradient><linearGradient id="SVGID_1_" gradientUnits="userSpaceOnUse" x1="74.981" x2="437.02" xlink:href="#lg1" y1="437.019" y2="74.98"/><radialGradient id="SVGID_2_" cx="256.001" cy="256" gradientUnits="userSpaceOnUse" r="258.6"><stop offset=".0053" stop-color="#8d00db" stop-opacity=".66"/><stop offset="1" stop-color="#fc54ff" stop-opacity="0"/></radialGradient><linearGradient id="lg2"><stop offset="0" stop-color="#b31de7"/><stop offset="1" stop-color="#fda0ff"/></linearGradient><linearGradient id="SVGID_3_" gradientUnits="userSpaceOnUse" x1="-99.51" x2="408.628" xlink:href="#lg2" y1="521.011" y2="12.874"/><linearGradient id="SVGID_4_" gradientUnits="userSpaceOnUse" x1="-272.689" x2="390.288" xlink:href="#lg2" y1="905.868" y2="242.892"/><linearGradient id="SVGID_5_" gradientUnits="userSpaceOnUse" x1="-206.111" x2="473.373" xlink:href="#lg2" y1="747.36" y2="67.876"/><linearGradient id="SVGID_6_" gradientUnits="userSpaceOnUse" x1="-6.355" x2="400.775" y1="462.815" y2="55.686"><stop offset="0" stop-color="#fc54ff"/><stop offset="1" stop-color="#fff"/></linearGradient><linearGradient id="SVGID_7_" gradientUnits="userSpaceOnUse" x1="-18.01" x2="449.732" y1="601.293" y2="133.552"><stop offset="0" stop-color="#fc54ff"/><stop offset=".4062" stop-color="#fd9bff"/><stop offset="1" stop-color="#fff"/></linearGradient><radialGradient id="SVGID_8_" cx="257.559" cy="285.624" gradientUnits="userSpaceOnUse" r="249.145"><stop offset=".2118" stop-color="#8d00db" stop-opacity=".66"/><stop offset=".2449" stop-color="#9e0de0" stop-opacity=".632"/><stop offset=".3146" stop-color="#bb23ea" stop-opacity=".574"/><stop offset=".3926" stop-color="#d335f2" stop-opacity=".509"/><stop offset=".4806" stop-color="#e543f8" stop-opacity=".435"/><stop offset=".5846" stop-color="#f24dfc" stop-opacity=".348"/><stop offset=".7196" stop-color="#fa52fe" stop-opacity=".235"/><stop offset="1" stop-color="#fc54ff" stop-opacity="0"/></radialGradient><linearGradient id="SVGID_9_" gradientUnits="userSpaceOnUse" x1="-370.374" x2="349.163" y1="912.675" y2="193.137"><stop offset="0" stop-color="#fc54ff"/><stop offset=".2201" stop-color="#fd75ff"/><stop offset=".7016" stop-color="#fec8ff"/><stop offset="1" stop-color="#fff"/></linearGradient><linearGradient id="SVGID_10_" gradientUnits="userSpaceOnUse" x1="38.544" x2="355.816" xlink:href="#lg1" y1="503.976" y2="186.704"/><linearGradient id="SVGID_11_" gradientUnits="userSpaceOnUse" x1="133.442" x2="335.042" xlink:href="#lg1" y1="409.312" y2="207.713"/><radialGradient id="SVGID_12_" cx="256" cy="286.75" gradientUnits="userSpaceOnUse" r="92.509"><stop offset="0" stop-color="#fc54ff" stop-opacity="0"/><stop offset=".1612" stop-color="#f750fd" stop-opacity=".107"/><stop offset=".3647" stop-color="#e744f8" stop-opacity=".242"/><stop offset=".5909" stop-color="#cd31f0" stop-opacity=".392"/><stop offset=".8318" stop-color="#a916e4" stop-opacity=".552"/><stop offset=".9947" stop-color="#8d00db" stop-opacity=".66"/></radialGradient><linearGradient id="SVGID_13_" gradientUnits="userSpaceOnUse" x1="303.153" x2="412.217" xlink:href="#lg1" y1="198.958" y2="89.893"/><linearGradient id="SVGID_14_" gradientUnits="userSpaceOnUse" x1="285.456" x2="420.01" xlink:href="#lg1" y1="241.52" y2="106.967"/><g><circle cx="256" cy="256" fill="url(#SVGID_1_)" r="256"/><circle cx="256" cy="256" fill="url(#SVGID_2_)" r="256"/><path d="m136 89.057c-24.783.955-45.987 22.16-46.943 46.943-2.909 80-2.909 160 0 240 .956 24.783 22.16 45.991 46.943 46.943 25 .909 50 1.534 75 1.875-1.5-112.545-1.5-225.091 0-337.637-25 .341-50 .966-75 1.876z" fill="url(#SVGID_3_)"/><path d="m376 89.057c-5-.182-10-.352-15-.511 3.5 111.636 3.5 223.273 0 334.909 5-.16 10-.33 15-.511 24.783-.956 45.987-22.16 46.943-46.943 2.909-80 2.909-160 0-240-.956-24.784-22.16-45.99-46.943-46.944z" fill="url(#SVGID_4_)"/><path d="m392.116 392.116c.167-5.041.325-10.083.474-15.124-19.499-24.356-39.554-49.211-59.859-74.322 20.617-25.363 41.233-50.573 61.544-75.382-.142-20.333-.436-40.666-.881-60.998-5.232-6.665-10.464-13.346-15.69-20.042 4.916-6.457 9.798-12.886 14.641-19.282-.074-2.36-.151-4.721-.229-7.081-.579-16.678-14.578-30.795-31.116-31.34-50-1.59-100-2.045-150-1.364-16.539.237-30.286 14.257-30.62 31.14-1.674 91.786-1.674 183.57 0 275.356.333 16.882 14.081 30.906 30.62 31.14 50 .682 100 .227 150-1.364 16.538-.543 30.537-14.659 31.116-31.337z" fill="url(#SVGID_5_)"/><path d="m117.726 227.288c-.349 49.902.212 99.802 1.685 149.704.252 8.345 7.252 15.348 15.598 15.598 15.124.446 30.248.809 45.372 1.088 19.612-29.964 39.85-60.323 60.274-90.782-20.499-30.509-41.112-61.019-61.399-91.236-15.349.09-30.698.207-46.047.351-8.475.088-15.424 6.93-15.483 15.277z" fill="url(#SVGID_6_)"/><path d="m378.792 212.012c-66.512-.623-133.024-.74-199.537-.351-.356 60.672.019 121.345 1.125 182.018 65.537 1.208 131.074.846 196.612-1.088 8.346-.251 15.347-7.255 15.598-15.598 1.472-49.902 2.034-99.803 1.685-149.704-.06-8.349-7.009-15.189-15.483-15.277z" fill="url(#SVGID_7_)"/><path d="m376 89.057c-80-2.909-160-2.909-240 0-24.783.955-45.987 22.16-46.943 46.943-2.909 80-2.909 160 0 240 .956 24.786 22.16 45.987 46.943 46.943 80 2.909 160 2.909 240 0 24.783-.956 45.987-22.156 46.943-46.943 2.909-80 2.909-160 0-240-.956-24.783-22.16-45.989-46.943-46.943z" fill="url(#SVGID_8_)"/><path d="m363.538 286.446c-.52 58.598-49.382 107.815-107.538 107.929-58.156-.116-107.018-49.331-107.538-107.929-.277-58.606 48.585-107.195 107.538-107.321 58.953.128 107.815 48.713 107.538 107.321z" fill="url(#SVGID_9_)"/><path d="m332.813 286.595c-.248 42.152-34.899 76.985-76.813 77.03-41.914-.042-76.565-34.882-76.813-77.03-.159-42.155 34.492-76.674 76.813-76.72 42.321.047 76.972 34.565 76.813 76.72z" fill="url(#SVGID_10_)"/><path d="m271.298 332.859c-42.153.053-76.752-34.614-76.798-76.859 0-6.231.771-12.285 2.19-18.087-10.986 13.273-17.581 30.206-17.503 48.683.248 42.152 34.899 76.985 76.813 77.03 35.774-.014 66.143-25.415 74.55-58.966-14.19 17.088-35.5 28.157-59.252 28.199z" fill="url(#SVGID_11_)"/><path d="m332.813 286.595c-.248 42.152-34.899 76.985-76.813 77.03-41.914-.042-76.565-34.882-76.813-77.03-.159-42.155 34.492-76.674 76.813-76.72 42.321.047 76.972 34.565 76.813 76.72z" fill="url(#SVGID_12_)"/><path d="m339.172 117.983c-4.175-.088-7.496 3.277-7.425 7.501.264 15.297.482 30.595.654 45.893.047 4.224 3.505 7.683 7.73 7.731 10.198.114 20.395.249 30.593.405-.312-20.268-.748-40.535-1.308-60.803-10.081-.279-20.162-.522-30.244-.727z" fill="url(#SVGID_13_)"/><path d="m384.539 119.159c-5.041-.159-10.081-.308-15.122-.449-4.174-.118-7.471 3.202-7.371 7.409.37 15.223.675 30.447.915 45.669.066 4.205 3.538 7.662 7.763 7.724 5.099.078 10.198.161 15.297.25 4.225.073 7.587-3.249 7.501-7.425-.309-15.125-.701-30.248-1.177-45.372-.133-4.175-3.632-7.673-7.806-7.806z" fill="url(#SVGID_14_)"/></g></svg>