<svg id="Capa_1" enable-background="new 0 0 512 512" height="512" viewBox="0 0 512 512" width="512" xmlns="http://www.w3.org/2000/svg"><g><g><circle cx="256" cy="256" fill="#7a83ea" r="256"/></g><g><path d="m511.947 260.222-161.625-161.625-218.613 289.875 123.518 123.518c.258.001.515.01.773.01 139.973 0 253.69-112.343 255.947-251.778z" fill="#4b5be3"/></g><g><path d="m131.709 128.597h218.613v259.875h-218.613z" fill="#fff"/><g><path d="m241.015 128.597h109.306v259.875h-109.306z" fill="#e3eaee"/></g><g><g fill="#9dcfff"><path d="m149.288 155.568h183.454v15h-183.454z"/><path d="m149.288 209.765h183.454v15h-183.454z"/><path d="m149.288 273.366h91.727v15h-91.727z"/><path d="m149.288 337.11h91.727v15h-91.727z"/></g><path d="m260.465 273.366h72.277v79.135h-72.277z" fill="#697c84"/></g><g fill="#72bbff"><path d="m241.015 155.568h91.727v15h-91.727z"/><path d="m241.015 209.765h91.727v15h-91.727z"/></g><g><g><path d="m264.225 240.463h60.092v224.584h-60.092z" fill="#ffd300" transform="matrix(-.707 -.707 .707 -.707 252.916 810.271)"/><path d="m169.747 323.224h235.572v30.046h-235.572z" fill="#ffb600" transform="matrix(.707 -.707 .707 .707 -154.961 302.386)"/><path d="m351.397 254.595h60.092v21.976h-60.092z" fill="#ef3800" transform="matrix(-.707 -.707 .707 -.707 463.368 723.1)"/><g><path d="m368.076 236.677 42.382 42.382 4.862-26.217-21.137-21.137z" fill="#fff"/><path d="m415.32 252.842 4.971-26.107-26.108 4.97z" fill="#5a5a5a"/></g></g><g><path d="m389.212 257.814-21.136-21.137-.109-.109-15.54 15.539 21.246 21.246z" fill="#ff641a"/><path d="m404.752 242.274-10.569-10.569-26.216 4.863 21.245 21.246z" fill="#e3eaee"/><path d="m420.291 226.735-26.108 4.97 10.569 10.569z" fill="#32393f"/></g></g><path d="m131.709 98.597h218.613v30h-218.613z" fill="#ff641a"/><path d="m241.015 98.597h109.306v30h-109.306z" fill="#ef3800"/></g></g></svg>